<?xml version="1.0" encoding="utf-8"?>
<!-- Generator: Adobe Illustrator 19.1.0, SVG Export Plug-In . SVG Version: 6.00 Build 0)  -->
<svg version="1.1" id="Layer_1" xmlns="http://www.w3.org/2000/svg" xmlns:xlink="http://www.w3.org/1999/xlink" x="0px" y="0px"
	 viewBox="164 -208 500 500" style="enable-background:new 164 -208 500 500;" xml:space="preserve">
<style type="text/css">
	.st0{display:none;}
	.st1{display:inline;fill:url(#SVGID_2_);}
	.st2{display:inline;fill:url(#SVGID_3_);}
	.st3{fill:url(#SVGID_4_);}
</style>
<g class="st0">
	
		<linearGradient id="SVGID_2_" gradientUnits="userSpaceOnUse" x1="414" y1="-208.92" x2="414" y2="291.08" gradientTransform="matrix(1 0 0 -1 0 83.12)">
		<stop  offset="0" style="stop-color:#115EA7"/>
		<stop  offset="1" style="stop-color:#258ECD"/>
	</linearGradient>
	<path id="SVGID_5_" class="st1" d="M164-208h500V36H521.1c0,0-8.4-20.7-12.5-31.6C504.5-6.3,500.2-17,496-27.7
		c-4.4,10.7-8.7,21.3-12.9,31.9c-4.2,10.6-8.4,21.1-12.6,31.6c-7.8-0.1-15.5-0.1-23.2-0.2l-13.5,40.7L403.4-60.1L377.6,35
		c-10.3-0.2-20.5-0.4-30.3-0.6c-3.7,10.1-10.9,30-10.9,30l-22-72.5L295,35.7l-131,0.1v-145.4V-208z M664,65.4V292l-500-0.2V65.3
		h135.7l13-27.4c0,0,7.2,21.2,10.7,31.9c3.6,10.7,7.2,21.6,10.9,32.4c4.5-7.7,9-15.4,13.4-23.1c4.5-7.8,9-15.6,13.7-23.5
		c7.8,0.2,20.3,0.3,28.2,0.5c5.3-10.9,5.8-37.2,11.1-48.2l30.5,154.9l31-104.2c7.3,0.2,14.6,0.3,21.9,0.5
		c3.7-12.1,11.4-36.2,11.4-36.2L512,65.5C511.9,65.4,600.4,65.4,664,65.4L664,65.4z"/>
	
		<linearGradient id="SVGID_3_" gradientUnits="userSpaceOnUse" x1="334.3" y1="-19.12" x2="334.3" y2="-19.12" gradientTransform="matrix(1 0 0 -1 0 83.12)">
		<stop  offset="0" style="stop-color:#115EA7"/>
		<stop  offset="1" style="stop-color:#258ECD"/>
	</linearGradient>
	<path class="st2" d="M334.3,102.2"/>
</g>
<g>
	<g>
		
			<linearGradient id="SVGID_4_" gradientUnits="userSpaceOnUse" x1="413.942" y1="-192.9109" x2="413.942" y2="275.4709" gradientTransform="matrix(1 0 0 -1 0 83.12)">
			<stop  offset="0" style="stop-color:#4C5350"/>
			<stop  offset="1" style="stop-color:#687278"/>
		</linearGradient>
		<path id="SVGID_1_" class="st3" d="M375.7,269.8c-14.9-50.1-90.1-304.2-90.1-304.2L284.8,276H179.9c0,0-0.1-389.3,0.2-468
			c25.5,0,52.1-0.4,77.6-0.4c25.3,0,50.5,0.1,75.8,0.1c13.9,47.8,27.9,95.4,41.7,142.6c13.8,47.2,27.5,94.2,41.3,141
			c14.3-47.3,28.7-94.5,43.2-141.7c14.3-47.3,28.8-94.4,43.2-141.7c24.5,0,49,0,73.5,0.1c24.2,0,71.8,0,71.8,0v468H545.8l0.6-313.2
			c0,0-78.3,256.1-94,306.8C427,270.5,401.4,268.9,375.7,269.8L375.7,269.8z"/>
	</g>
</g>
</svg>
