<?xml version="1.0" encoding="utf-8"?>
<!-- Generator: Adobe Illustrator 19.1.0, SVG Export Plug-In . SVG Version: 6.00 Build 0)  -->
<svg version="1.1" id="Layer_1" xmlns="http://www.w3.org/2000/svg" xmlns:xlink="http://www.w3.org/1999/xlink" x="0px" y="0px"
	 viewBox="-99 0 500 500" style="enable-background:new -99 0 500 500;" xml:space="preserve">
<style type="text/css">
	.st0{fill:url(#SVGID_1_);}
	.st1{fill:url(#SVGID_2_);}
</style>
<linearGradient id="SVGID_1_" gradientUnits="userSpaceOnUse" x1="152" y1="16" x2="152" y2="484" gradientTransform="matrix(1 0 0 -1 0 500)">
	<stop  offset="0" style="stop-color:#115EA7"/>
	<stop  offset="1" style="stop-color:#258ECD"/>
</linearGradient>
<path id="SVGID_5_" class="st0" d="M-81,16h466v228.4H251.8c0,0-7.8-19.4-11.6-29.6c-3.8-10-7.8-20-11.7-30
	c-4.1,10-8.1,19.9-12,29.9c-3.9,9.9-7.8,19.7-11.7,29.6c-7.3-0.1-14.4-0.1-21.6-0.2l-12.6,38.1l-28.3-127.7l-24,89
	c-9.6-0.2-19.1-0.4-28.2-0.6c-3.4,9.5-10.2,28.1-10.2,28.1l-20.5-67.9l-18.1,41L-81,244.2V108.1V16z M385,271.9V484l-466-0.2v-212
	H45.5l12.1-25.6c0,0,6.7,19.8,10,29.9c3.4,10,6.7,20.2,10.2,30.3c4.2-7.2,8.4-14.4,12.5-21.6c4.2-7.3,8.4-14.6,12.8-22
	c7.3,0.2,18.9,0.3,26.3,0.5c4.9-10.2,5.4-34.8,10.3-45.1l28.4,145l28.9-97.5c6.8,0.2,13.6,0.3,20.4,0.5
	c3.4-11.3,10.6-33.9,10.6-33.9l15.4,39.9C243.2,271.9,325.7,271.9,385,271.9L385,271.9z"/>
<linearGradient id="SVGID_2_" gradientUnits="userSpaceOnUse" x1="71.3" y1="189.8" x2="71.3" y2="189.8" gradientTransform="matrix(1 0 0 -1 0 500)">
	<stop  offset="0" style="stop-color:#115EA7"/>
	<stop  offset="1" style="stop-color:#258ECD"/>
</linearGradient>
<path class="st1" d="M71.3,310.2"/>
</svg>
